<svg viewBox="0 0 28 28" xmlns="http://www.w3.org/2000/svg"><path d="M14.2499 4.375C14.8319 4.375 15.3037 4.84137 15.3037 5.41666C15.3037 5.87017 15.0104 6.25575 14.6012 6.39877V8.26399H14.9524C15.5109 8.26399 15.9675 8.69328 16.0037 9.23621H18.2544C20.5477 9.23621 22.4397 10.9331 22.7159 13.1259C23.2816 13.1443 23.7344 13.6031 23.7344 14.1667V15.6945C23.7343 16.2697 23.2625 16.7362 22.6805 16.7362C22.6637 16.7362 22.6469 16.7356 22.6302 16.7348C22.2147 18.5198 20.7287 19.6036 18.2544 20.0695C15.3037 20.625 9.26175 21.875 9.26175 21.875L10.1048 20.0695C8.0024 20.0695 6.23719 18.643 5.74513 16.7159C5.67822 16.7291 5.60903 16.7362 5.53821 16.7362C4.95623 16.7362 4.48444 16.2697 4.48438 15.6945V14.1667C4.48438 13.5914 4.95619 13.1251 5.53821 13.1251C5.57345 13.1251 5.60828 13.1267 5.64263 13.1301C5.91693 10.9353 7.81012 9.23621 10.1048 9.23621H12.3556C12.3917 8.69328 12.8484 8.26399 13.4068 8.26399H13.7581V6.33788C13.4239 6.1632 13.1961 5.81633 13.1961 5.41666C13.1961 4.84137 13.6679 4.375 14.2499 4.375ZM11.2289 11.3195C9.44405 11.3195 7.99715 12.7497 7.99715 14.5139V14.6528C7.99721 16.417 9.44409 17.8473 11.2289 17.8473H17.1304C18.9152 17.8473 20.362 16.417 20.3621 14.6528V14.5139C20.3621 12.7497 18.9152 11.3195 17.1304 11.3195H11.2289ZM11.4397 13.5416C12.0217 13.5416 12.4935 14.008 12.4935 14.5833C12.4935 15.1585 12.0217 15.6249 11.4397 15.6249C10.8577 15.6249 10.3858 15.1585 10.3858 14.5833C10.3858 14.008 10.8577 13.5416 11.4397 13.5416ZM16.9196 13.5416C17.5016 13.5416 17.9734 14.008 17.9734 14.5833C17.9734 15.1585 17.5016 15.6249 16.9196 15.6249C16.3376 15.6249 15.8658 15.1585 15.8658 14.5833C15.8658 14.008 16.3376 13.5416 16.9196 13.5416Z"/></svg>
