<svg width="14" height="11" viewBox="0 0 14 11" fill="none" xmlns="http://www.w3.org/2000/svg">
<path d="M13.5 0L9 0C8.61189 0 8.2291 0.0828325 7.88197 0.241938C7.53483 0.401043 7.23287 0.632051 7 0.916667C6.76713 0.632051 6.46517 0.401043 6.11803 0.241938C5.7709 0.0828325 5.38811 0 5 0L0.5 0C0.367392 0 0.240215 0.0482886 0.146447 0.134243C0.0526784 0.220197 0 0.336776 0 0.458333L0 8.70833C0 8.82989 0.0526784 8.94647 0.146447 9.03242C0.240215 9.11838 0.367392 9.16667 0.5 9.16667H5C5.39782 9.16667 5.77936 9.31153 6.06066 9.5694C6.34196 9.82726 6.5 10.177 6.5 10.5417C6.5 10.6632 6.55268 10.7798 6.64645 10.8658C6.74021 10.9517 6.86739 11 7 11C7.13261 11 7.25979 10.9517 7.35355 10.8658C7.44732 10.7798 7.5 10.6632 7.5 10.5417C7.5 10.177 7.65804 9.82726 7.93934 9.5694C8.22064 9.31153 8.60218 9.16667 9 9.16667H13.5C13.6326 9.16667 13.7598 9.11838 13.8536 9.03242C13.9473 8.94647 14 8.82989 14 8.70833V0.458333C14 0.336776 13.9473 0.220197 13.8536 0.134243C13.7598 0.0482886 13.6326 0 13.5 0ZM5 8.25H1L1 0.916667L5 0.916667C5.39782 0.916667 5.77936 1.06153 6.06066 1.31939C6.34196 1.57726 6.5 1.92699 6.5 2.29167L6.5 8.70833C6.06766 8.41012 5.54106 8.24921 5 8.25ZM13 8.25H9C8.45893 8.24921 7.93234 8.41012 7.5 8.70833L7.5 2.29167C7.5 1.92699 7.65804 1.57726 7.93934 1.31939C8.22064 1.06153 8.60218 0.916667 9 0.916667L13 0.916667V8.25Z" fill="currentColor"/>
</svg>
