<svg width="16" height="16" viewBox="0 0 16 16" fill="none" xmlns="http://www.w3.org/2000/svg">
<path d="M8 1C6.61553 1 5.26216 1.41054 4.11101 2.17971C2.95987 2.94888 2.06266 4.04213 1.53285 5.32122C1.00303 6.6003 0.86441 8.00776 1.13451 9.36563C1.4046 10.7235 2.07129 11.9708 3.05026 12.9497C4.02922 13.9287 5.2765 14.5954 6.63437 14.8655C7.99224 15.1356 9.3997 14.997 10.6788 14.4672C11.9579 13.9373 13.0511 13.0401 13.8203 11.889C14.5895 10.7378 15 9.38447 15 8C14.998 6.14409 14.2599 4.36475 12.9476 3.05242C11.6353 1.74009 9.85592 1.00196 8 1ZM8 13.9231C6.82853 13.9231 5.68336 13.5757 4.70932 12.9249C3.73527 12.274 2.9761 11.349 2.52779 10.2667C2.07949 9.18436 1.96219 7.99343 2.19074 6.84446C2.41928 5.6955 2.9834 4.64011 3.81175 3.81175C4.64011 2.98339 5.6955 2.41928 6.84447 2.19073C7.99343 1.96219 9.18436 2.07949 10.2667 2.52779C11.349 2.97609 12.274 3.73527 12.9249 4.70931C13.5757 5.68336 13.9231 6.82853 13.9231 8C13.9213 9.57035 13.2967 11.0759 12.1863 12.1863C11.0759 13.2967 9.57035 13.9213 8 13.9231ZM12.3077 8C12.3077 8.14281 12.251 8.27977 12.15 8.38075C12.049 8.48173 11.912 8.53846 11.7692 8.53846H8C7.85719 8.53846 7.72023 8.48173 7.61925 8.38075C7.51827 8.27977 7.46154 8.14281 7.46154 8V4.23077C7.46154 4.08796 7.51827 3.951 7.61925 3.85002C7.72023 3.74904 7.85719 3.69231 8 3.69231C8.14281 3.69231 8.27977 3.74904 8.38075 3.85002C8.48173 3.951 8.53846 4.08796 8.53846 4.23077V7.46154H11.7692C11.912 7.46154 12.049 7.51827 12.15 7.61925C12.251 7.72023 12.3077 7.85719 12.3077 8Z" fill="currentColor"/>
</svg>
