<svg width="14" height="14" viewBox="0 0 14 14" fill="none" xmlns="http://www.w3.org/2000/svg">
<path d="M14 5.25C14 5.40471 13.9385 5.55308 13.8291 5.66248C13.7197 5.77187 13.5714 5.83333 13.4167 5.83333C13.262 5.83333 13.1136 5.77187 13.0042 5.66248C12.8948 5.55308 12.8333 5.40471 12.8333 5.25V1.99208L7.99677 6.82938C7.88731 6.93883 7.73886 7.00032 7.58406 7.00032C7.42927 7.00032 7.28081 6.93883 7.17135 6.82938C7.0619 6.71992 7.0004 6.57146 7.0004 6.41667C7.0004 6.26187 7.0619 6.11341 7.17135 6.00396L12.0079 1.16667L8.75 1.16667C8.59529 1.16667 8.44692 1.10521 8.33752 0.995812C8.22812 0.886416 8.16667 0.738043 8.16667 0.583333C8.16667 0.428624 8.22812 0.280251 8.33752 0.170854C8.44692 0.0614583 8.59529 0 8.75 0L13.4167 0C13.5714 0 13.7197 0.0614583 13.8291 0.170854C13.9385 0.280251 14 0.428624 14 0.583333V5.25ZM11.0833 7C10.9286 7 10.7802 7.06146 10.6709 7.17085C10.5615 7.28025 10.5 7.42862 10.5 7.58333V12.8333H1.16667L1.16667 3.5L6.41667 3.5C6.57138 3.5 6.71975 3.43854 6.82915 3.32915C6.93854 3.21975 7 3.07138 7 2.91667C7 2.76196 6.93854 2.61358 6.82915 2.50419C6.71975 2.39479 6.57138 2.33333 6.41667 2.33333L1.16667 2.33333C0.857247 2.33333 0.560501 2.45625 0.341709 2.67504C0.122916 2.89383 0 3.19058 0 3.5L0 12.8333C0 13.1428 0.122916 13.4395 0.341709 13.6583C0.560501 13.8771 0.857247 14 1.16667 14H10.5C10.8094 14 11.1062 13.8771 11.325 13.6583C11.5437 13.4395 11.6667 13.1428 11.6667 12.8333V7.58333C11.6667 7.42862 11.6052 7.28025 11.4958 7.17085C11.3864 7.06146 11.238 7 11.0833 7Z" fill="currentColor"/>
</svg>
