<svg width="16" height="16" viewBox="0 0 16 16" fill="none" xmlns="http://www.w3.org/2000/svg">
  <path
    d="M10.0854 0.621545C10.2525 0.48627 10.4791 0.461852 10.6693 0.558655C10.8596 0.655465 10.9802 0.856568 10.9802 1.07691V14.9231C10.9802 15.1434 10.8596 15.3445 10.6693 15.4413C10.4791 15.5381 10.2525 15.5137 10.0854 15.3785L7.66541 13.42L5.24546 11.4615H2.10891C1.81481 11.4615 1.53277 11.34 1.32481 11.1236C1.11685 10.9072 1 10.6137 1 10.3077V5.6923C1 5.38629 1.11685 5.09282 1.32481 4.87643C1.53277 4.66004 1.81481 4.53846 2.10891 4.53846H5.24546L10.0854 0.621545ZM2.10891 10.3077H5.43564C5.55894 10.3077 5.67869 10.3505 5.77602 10.4292L9.87129 13.7435V2.25647L5.77602 5.57075C5.67869 5.64951 5.55894 5.6923 5.43564 5.6923H2.10891V10.3077Z"
    fill="currentColor" />
  <path
    d="M4.88119 10.8846V5.11538C4.88119 4.79676 5.12943 4.53846 5.43564 4.53846C5.74186 4.53846 5.9901 4.79676 5.9901 5.11538V10.8846C5.9901 11.2032 5.74186 11.4615 5.43564 11.4615C5.12943 11.4615 4.88119 11.2032 4.88119 10.8846Z"
    fill="currentColor" />
  <path
    d="M13.8911 8C13.8911 7.23679 13.5383 6.46491 12.8379 5.84252C12.6051 5.63559 12.5776 5.27146 12.7764 5.02918C12.9753 4.7869 13.3252 4.75824 13.5581 4.96516C14.4645 5.77072 15 6.84742 15 8C15 9.15258 14.4645 10.2293 13.5581 11.0348C13.3252 11.2418 12.9753 11.2131 12.7764 10.9708C12.5776 10.7285 12.6051 10.3644 12.8379 10.1575C13.5383 9.53509 13.8911 8.76321 13.8911 8Z"
    fill="currentColor" />
</svg>