<svg width="16" height="16" viewBox="0 0 16 16" fill="none" xmlns="http://www.w3.org/2000/svg">
  <path
    d="M8 10.6552C8.7954 10.6544 9.55798 10.3489 10.1204 9.80591C10.6828 9.26287 10.9992 8.52659 11 7.75862V3.89655C11 3.12834 10.6839 2.39159 10.1213 1.84838C9.55871 1.30517 8.79565 1 8 1C7.20435 1 6.44129 1.30517 5.87868 1.84838C5.31607 2.39159 5 3.12834 5 3.89655V7.75862C5.00083 8.52659 5.31716 9.26287 5.87959 9.80591C6.44202 10.3489 7.2046 10.6544 8 10.6552ZM6 3.89655C6 3.38441 6.21071 2.89324 6.58579 2.5311C6.96086 2.16896 7.46957 1.96552 8 1.96552C8.53043 1.96552 9.03914 2.16896 9.41421 2.5311C9.78929 2.89324 10 3.38441 10 3.89655V7.75862C10 8.27076 9.78929 8.76193 9.41421 9.12407C9.03914 9.48621 8.53043 9.68966 8 9.68966C7.46957 9.68966 6.96086 9.48621 6.58579 9.12407C6.21071 8.76193 6 8.27076 6 7.75862V3.89655ZM8.5 12.5621V14.5172C8.5 14.6453 8.44732 14.7681 8.35355 14.8586C8.25979 14.9491 8.13261 15 8 15C7.86739 15 7.74021 14.9491 7.64645 14.8586C7.55268 14.7681 7.5 14.6453 7.5 14.5172V12.5621C6.26728 12.441 5.12485 11.8828 4.29365 10.9956C3.46245 10.1083 3.00152 8.95498 3 7.75862C3 7.63059 3.05268 7.50779 3.14645 7.41726C3.24021 7.32672 3.36739 7.27586 3.5 7.27586C3.63261 7.27586 3.75979 7.32672 3.85355 7.41726C3.94732 7.50779 4 7.63059 4 7.75862C4 8.78291 4.42143 9.76524 5.17157 10.4895C5.92172 11.2138 6.93913 11.6207 8 11.6207C9.06087 11.6207 10.0783 11.2138 10.8284 10.4895C11.5786 9.76524 12 8.78291 12 7.75862C12 7.63059 12.0527 7.50779 12.1464 7.41726C12.2402 7.32672 12.3674 7.27586 12.5 7.27586C12.6326 7.27586 12.7598 7.32672 12.8536 7.41726C12.9473 7.50779 13 7.63059 13 7.75862C12.9985 8.95498 12.5375 10.1083 11.7063 10.9956C10.8751 11.8828 9.73272 12.441 8.5 12.5621Z"
    fill="currentColor" />
</svg>