<svg width="14" height="10" viewBox="0 0 14 10" fill="none" xmlns="http://www.w3.org/2000/svg">
<path d="M7 3.15039C7.83743 3.15039 8.5166 3.82956 8.5166 4.66699C8.51657 5.50439 7.83741 6.18359 7 6.18359C6.16259 6.18359 5.48343 5.50439 5.4834 4.66699C5.4834 3.82956 6.16257 3.15039 7 3.15039Z" fill="currentColor"/>
<path fill-rule="evenodd" clip-rule="evenodd" d="M7 0C9.0346 0 10.8831 0.773819 12.3467 2.2373C13.4451 3.33572 13.9395 4.43243 13.96 4.47852C13.9864 4.53806 14 4.60283 14 4.66797C14 4.73316 13.9864 4.79785 13.96 4.85742C13.9388 4.90507 13.4443 6.00007 12.3467 7.09766C10.8831 8.56046 9.03453 9.33398 7 9.33398C4.96547 9.33398 3.11686 8.56046 1.65332 7.09766C0.55574 6.00008 0.0611619 4.90507 0.0400391 4.85742C0.0135524 4.79785 4.8824e-05 4.73316 0 4.66797C0 4.60283 0.0136437 4.53806 0.0400391 4.47852C0.0581224 4.43418 0.554903 3.33572 1.65332 2.2373C3.11688 0.773819 4.9654 0 7 0ZM8.41602 1.20312C7.73354 0.920434 6.98232 0.84612 6.25781 0.990234C5.53333 1.13435 4.86803 1.49037 4.3457 2.0127C3.82338 2.53502 3.46737 3.20033 3.32324 3.9248C3.17913 4.64932 3.25344 5.40053 3.53613 6.08301C3.81877 6.76525 4.29717 7.34844 4.91113 7.75879C5.52529 8.16915 6.24769 8.38863 6.98633 8.38867C7.9769 8.38867 8.92749 7.99536 9.62793 7.29492C10.3284 6.59448 10.7217 5.64388 10.7217 4.65332C10.7216 3.9147 10.5022 3.19227 10.0918 2.57812C9.68145 1.96417 9.09825 1.48577 8.41602 1.20312Z" fill="currentColor"/>
</svg>
