<svg width="16" height="16" viewBox="0 0 16 16" fill="none" xmlns="http://www.w3.org/2000/svg">
<path d="M13.7301 7.07651L10.6451 10.1719C10.9082 10.9029 11.0173 12.1272 9.88411 13.6336C9.80486 13.7396 9.70367 13.8271 9.58747 13.8904C9.47127 13.9536 9.34278 13.991 9.2108 14C9.18887 14 9.16752 14 9.1456 14C9.0243 14 8.90418 13.9761 8.79211 13.9297C8.68005 13.8833 8.57823 13.8152 8.49248 13.7294L5.70808 10.9421L3.2485 13.4034C3.16189 13.49 3.04442 13.5387 2.92194 13.5387C2.79945 13.5387 2.68199 13.49 2.59538 13.4034C2.50877 13.3168 2.46011 13.1994 2.46011 13.0769C2.46011 12.9544 2.50877 12.8369 2.59538 12.7503L5.05669 10.2907L2.26997 7.50404C2.17837 7.41232 2.10712 7.30235 2.06084 7.18127C2.01456 7.06019 1.9943 6.93073 2.00138 6.8013C2.00845 6.67187 2.0427 6.54539 2.10191 6.43007C2.16111 6.31476 2.24393 6.21321 2.34498 6.13203C3.81161 4.94869 5.21535 5.1812 5.82981 5.37391L8.92232 2.27045C9.00804 2.18471 9.10982 2.11669 9.22183 2.07029C9.33384 2.02388 9.4539 2 9.57515 2C9.69639 2 9.81645 2.02388 9.92846 2.07029C10.0405 2.11669 10.1423 2.18471 10.228 2.27045L13.7295 5.77143C13.9026 5.94446 13.9999 6.17913 14 6.42385C14.0001 6.66858 13.903 6.90333 13.7301 7.07651Z" fill="#A9B7C1"/>
</svg>
