<svg width="16" height="16" viewBox="0 0 16 16" fill="none" xmlns="http://www.w3.org/2000/svg">
  <path
    d="M13 8C13.0003 8.11753 12.9726 8.23312 12.9196 8.33555C12.8666 8.43798 12.7902 8.52376 12.6977 8.58454L6.96727 12.3981C6.87066 12.4625 6.76 12.4976 6.64674 12.4999C6.53347 12.5022 6.42169 12.4715 6.32295 12.4111C6.22516 12.3516 6.14369 12.2649 6.08693 12.1598C6.03017 12.0547 6.00016 11.935 6 11.8131V4.18687C6.00016 4.06498 6.03017 3.94533 6.08693 3.84024C6.14369 3.73515 6.22516 3.6484 6.32295 3.58891C6.42169 3.52849 6.53347 3.49784 6.64674 3.50012C6.76 3.5024 6.87066 3.53754 6.96727 3.60189L12.6977 7.41546C12.7902 7.47624 12.8666 7.56201 12.9196 7.66444C12.9726 7.76688 13.0003 7.88247 13 8Z"
    fill="currentColor" />
</svg>