<svg width="16" height="16" viewBox="0 0 16 16" fill="none" xmlns="http://www.w3.org/2000/svg">
<path d="M13.9859 7.34445C13.9653 7.25894 13.9234 7.17974 13.8639 7.11389C13.8044 7.04805 13.7293 6.99758 13.6451 6.96699L9.71811 5.52584L10.7174 0.635541C10.74 0.521917 10.7243 0.404175 10.6725 0.300083C10.6207 0.195991 10.5358 0.111197 10.4304 0.0584956C10.3251 0.00579451 10.2051 -0.0119537 10.0885 0.00792908C9.97193 0.0278119 9.86514 0.0842469 9.78423 0.168718L2.14977 8.17139C2.08777 8.23531 2.04291 8.31326 2.01921 8.39828C1.99551 8.48331 1.99371 8.57275 2.01396 8.65862C2.03422 8.74448 2.0759 8.82411 2.13528 8.89037C2.19466 8.95663 2.2699 9.00747 2.35427 9.03835L6.28261 10.4795L5.28604 15.3645C5.26341 15.4781 5.27917 15.5958 5.33094 15.6999C5.38271 15.804 5.46768 15.8888 5.57303 15.9415C5.67838 15.9942 5.79839 16.012 5.91495 15.9921C6.03152 15.9722 6.13831 15.9158 6.21921 15.8313L13.8537 7.82861C13.9146 7.76467 13.9585 7.68709 13.9815 7.60266C14.0046 7.51824 14.0061 7.42957 13.9859 7.34445ZM6.73181 13.7352L7.4455 10.2421C7.47104 10.1182 7.4508 9.98946 7.38838 9.87881C7.32597 9.76816 7.22543 9.68278 7.10467 9.63788L3.50284 8.31411L9.27095 2.26809L8.55795 5.76125C8.5324 5.88514 8.55264 6.01388 8.61506 6.12453C8.67748 6.23518 8.77802 6.32056 8.89877 6.36545L12.4979 7.68589L6.73181 13.7352Z" fill="currentColor"/>
</svg>
