<svg width="16" height="16" viewBox="0 0 16 16" fill="none" xmlns="http://www.w3.org/2000/svg">
<path d="M11.0733 6.00365C11.1233 6.05366 11.1631 6.11305 11.1901 6.17842C11.2172 6.24378 11.2312 6.31385 11.2312 6.38461C11.2312 6.45538 11.2172 6.52544 11.1901 6.59081C11.1631 6.65618 11.1233 6.71557 11.0733 6.76558L7.30404 10.5348C7.25403 10.5849 7.19465 10.6246 7.12928 10.6517C7.06391 10.6788 6.99384 10.6927 6.92308 10.6927C6.85232 10.6927 6.78225 10.6788 6.71688 10.6517C6.65151 10.6246 6.59213 10.5849 6.54212 10.5348L4.92673 8.91942C4.8257 8.81838 4.76893 8.68135 4.76893 8.53846C4.76893 8.39557 4.8257 8.25854 4.92673 8.1575C5.02777 8.05646 5.16481 7.9997 5.30769 7.9997C5.45058 7.9997 5.58762 8.05646 5.68866 8.1575L6.92308 9.3926L10.3113 6.00365C10.3614 5.95359 10.4207 5.91387 10.4861 5.88677C10.5515 5.85968 10.6215 5.84573 10.6923 5.84573C10.7631 5.84573 10.8331 5.85968 10.8985 5.88677C10.9639 5.91387 11.0233 5.95359 11.0733 6.00365ZM15 8C15 9.38447 14.5895 10.7378 13.8203 11.889C13.0511 13.0401 11.9579 13.9373 10.6788 14.4672C9.3997 14.997 7.99224 15.1356 6.63437 14.8655C5.2765 14.5954 4.02922 13.9287 3.05026 12.9497C2.07129 11.9708 1.4046 10.7235 1.13451 9.36563C0.86441 8.00776 1.00303 6.6003 1.53285 5.32122C2.06266 4.04213 2.95987 2.94888 4.11101 2.17971C5.26216 1.41054 6.61553 1 8 1C9.85592 1.00196 11.6353 1.74009 12.9476 3.05242C14.2599 4.36475 14.998 6.14409 15 8ZM13.9231 8C13.9231 6.82853 13.5757 5.68336 12.9249 4.70931C12.274 3.73527 11.349 2.97609 10.2667 2.52779C9.18436 2.07949 7.99343 1.96219 6.84447 2.19073C5.6955 2.41928 4.64011 2.98339 3.81175 3.81175C2.9834 4.64011 2.41928 5.6955 2.19074 6.84446C1.96219 7.99343 2.07949 9.18436 2.52779 10.2667C2.9761 11.349 3.73527 12.274 4.70932 12.9249C5.68336 13.5757 6.82853 13.9231 8 13.9231C9.57035 13.9213 11.0759 13.2967 12.1863 12.1863C13.2967 11.0759 13.9213 9.57035 13.9231 8Z" fill="currentColor"/>
</svg>
