<svg width="24" height="24" viewBox="0 0 24 24" fill="none" xmlns="http://www.w3.org/2000/svg">
<path d="M16.6099 9.00548C16.685 9.08049 16.7446 9.16957 16.7852 9.26762C16.8259 9.36568 16.8468 9.47078 16.8468 9.57692C16.8468 9.68306 16.8259 9.78817 16.7852 9.88622C16.7446 9.98427 16.685 10.0734 16.6099 10.1484L10.9561 15.8022C10.881 15.8773 10.792 15.9369 10.6939 15.9775C10.5959 16.0182 10.4908 16.0391 10.3846 16.0391C10.2785 16.0391 10.1734 16.0182 10.0753 15.9775C9.97727 15.9369 9.88819 15.8773 9.81318 15.8022L7.3901 13.3791C7.23854 13.2276 7.1534 13.022 7.1534 12.8077C7.1534 12.5934 7.23854 12.3878 7.3901 12.2362C7.54166 12.0847 7.74721 11.9995 7.96154 11.9995C8.17587 11.9995 8.38143 12.0847 8.53298 12.2362L10.3846 14.0889L15.467 9.00548C15.542 8.93038 15.6311 8.87081 15.7292 8.83016C15.8272 8.78952 15.9323 8.76859 16.0385 8.76859C16.1446 8.76859 16.2497 8.78952 16.3478 8.83016C16.4458 8.87081 16.5349 8.93038 16.6099 9.00548ZM22.5 12C22.5 14.0767 21.8842 16.1068 20.7304 17.8335C19.5767 19.5602 17.9368 20.906 16.0182 21.7007C14.0996 22.4954 11.9884 22.7034 9.95155 22.2982C7.91475 21.8931 6.04383 20.8931 4.57538 19.4246C3.10693 17.9562 2.1069 16.0852 1.70176 14.0484C1.29661 12.0116 1.50455 9.90045 2.29927 7.98182C3.09399 6.0632 4.4398 4.42332 6.16652 3.26957C7.89323 2.11581 9.9233 1.5 12 1.5C14.7839 1.50294 17.4529 2.61013 19.4214 4.57862C21.3899 6.54712 22.4971 9.21613 22.5 12ZM20.8846 12C20.8846 10.2428 20.3635 8.52504 19.3873 7.06397C18.411 5.6029 17.0234 4.46414 15.4 3.79169C13.7765 3.11923 11.9901 2.94328 10.2667 3.2861C8.54325 3.62891 6.96017 4.47509 5.71763 5.71763C4.4751 6.96016 3.62892 8.54325 3.2861 10.2667C2.94329 11.9901 3.11923 13.7765 3.79169 15.4C4.46414 17.0234 5.60291 18.411 7.06398 19.3873C8.52504 20.3635 10.2428 20.8846 12 20.8846C14.3555 20.8819 16.6138 19.945 18.2794 18.2794C19.945 16.6138 20.8819 14.3555 20.8846 12Z" fill="url(#tutorials-success-gradient-light)"/>
<defs>
<linearGradient id="tutorials-success-gradient-light" x1="2" y1="0.999999" x2="23" y2="22" gradientUnits="userSpaceOnUse">
<stop stop-color="#FB85FF"/>
<stop offset="1" stop-color="#3E87FD"/>
</linearGradient>
</defs>
</svg>
