<svg width="24" height="24" viewBox="0 0 24 24" fill="none" xmlns="http://www.w3.org/2000/svg">
  <defs>
    <linearGradient id="tutorials-prompt-gradient-light" x1="0%" y1="0%" x2="100%" y2="100%">
      <stop offset="0%" stop-color="#FB85FF" />
      <stop offset="100%" stop-color="#3E87FD" />
    </linearGradient>
  </defs>
  <path
    d="M21.237 5.40851L12.2371 2.29001C12.0831 2.23666 11.9167 2.23666 11.7627 2.29001L2.76281 5.40851C2.61347 5.46026 2.48358 5.55954 2.39155 5.6923C2.29951 5.82505 2.24999 5.98454 2.25 6.14818V13.9444C2.25 14.1512 2.32902 14.3495 2.46967 14.4957C2.61032 14.6419 2.80108 14.724 2.99999 14.724C3.1989 14.724 3.38967 14.6419 3.53032 14.4957C3.67097 14.3495 3.74999 14.1512 3.74999 13.9444V7.22991L6.89902 8.3204C6.06236 9.72549 5.79631 11.4183 6.15928 13.0271C6.52225 14.6359 7.48457 16.0292 8.83494 16.9011C7.14746 17.5892 5.68872 18.8336 4.62185 20.5352C4.56637 20.6209 4.52783 20.7172 4.50848 20.8186C4.48912 20.9199 4.48934 21.0242 4.50911 21.1255C4.52889 21.2267 4.56783 21.3229 4.62367 21.4084C4.67951 21.4939 4.75114 21.5669 4.83439 21.6234C4.91764 21.6798 5.01085 21.7185 5.10861 21.7372C5.20637 21.7558 5.30672 21.7541 5.40383 21.7321C5.50095 21.7101 5.59288 21.6683 5.6743 21.609C5.75572 21.5497 5.82499 21.4742 5.87809 21.3869C7.29089 19.1338 9.52213 17.8425 11.9999 17.8425C14.4777 17.8425 16.7089 19.1338 18.1217 21.3869C18.2317 21.5569 18.4017 21.675 18.5948 21.7157C18.7879 21.7565 18.9887 21.7166 19.1537 21.6047C19.3188 21.4928 19.4348 21.3179 19.4768 21.1177C19.5187 20.9176 19.4833 20.7083 19.378 20.5352C18.3111 18.8336 16.8467 17.5892 15.1649 16.9011C16.514 16.0293 17.4754 14.6369 17.8383 13.0292C18.2012 11.4216 17.936 9.72995 17.1008 8.32528L21.237 6.89272C21.3864 6.841 21.5163 6.74173 21.6084 6.60897C21.7005 6.47622 21.75 6.31671 21.75 6.15305C21.75 5.98939 21.7005 5.82988 21.6084 5.69713C21.5163 5.56437 21.3864 5.4651 21.237 5.41338V5.40851ZM16.4999 11.6055C16.5001 12.3451 16.3316 13.0741 16.0083 13.7328C15.6849 14.3916 15.216 14.9612 14.6398 15.3951C14.0637 15.8289 13.3968 16.1146 12.6939 16.2287C11.991 16.3427 11.2721 16.2819 10.5962 16.0512C9.92024 15.8205 9.30657 15.4265 8.8055 14.9015C8.30443 14.3766 7.93023 13.7356 7.71362 13.0311C7.49701 12.3267 7.44415 11.579 7.55938 10.8492C7.67461 10.1194 7.95464 9.42848 8.37651 8.83301L11.7627 10.0024C11.9167 10.0558 12.0831 10.0558 12.2371 10.0024L15.6233 8.83301C16.1931 9.63602 16.5003 10.6077 16.4999 11.6055ZM11.9999 8.44514L5.37185 6.14818L11.9999 3.85121L18.628 6.14818L11.9999 8.44514Z"
    fill="url(#tutorials-prompt-gradient-light)"
  />
</svg>