<svg width="16" height="16" viewBox="0 0 16 16" fill="none" xmlns="http://www.w3.org/2000/svg">
  <path
    d="M3.91797 10.3125C4.04037 10.1882 4.10938 10.0202 4.10938 9.8457V6.1543C4.10938 5.97982 4.04037 5.81179 3.91797 5.6875C3.79547 5.56315 3.62866 5.49219 3.4541 5.49219C3.27967 5.49231 3.11264 5.56321 2.99023 5.6875C2.86806 5.81175 2.7998 5.98 2.7998 6.1543V9.8457C2.7998 10.02 2.86806 10.1882 2.99023 10.3125C3.11264 10.4368 3.27967 10.5077 3.4541 10.5078C3.62866 10.5078 3.79547 10.4369 3.91797 10.3125Z"
    fill="currentColor" />
  <path
    d="M10.7363 10.3125C10.8587 10.1882 10.9277 10.0202 10.9277 9.8457V6.1543C10.9277 5.97983 10.8587 5.81179 10.7363 5.6875C10.6138 5.56311 10.4471 5.49219 10.2725 5.49219C10.098 5.49226 9.93104 5.56317 9.80859 5.6875C9.68637 5.81176 9.61816 5.97996 9.61816 6.1543V9.8457C9.61816 10.02 9.68637 10.1882 9.80859 10.3125C9.93104 10.4368 10.098 10.5077 10.2725 10.5078C10.4471 10.5078 10.6138 10.4369 10.7363 10.3125Z"
    fill="currentColor" />
  <path
    d="M13.0098 11.2363C13.1321 11.1121 13.2001 10.9439 13.2002 10.7695V5.23047C13.2001 5.0561 13.1321 4.88789 13.0098 4.76367C12.8874 4.63939 12.7203 4.56946 12.5459 4.56934C12.3715 4.56934 12.2045 4.63956 12.082 4.76367C11.9597 4.88789 11.8907 5.0561 11.8906 5.23047V10.7695C11.8907 10.9439 11.9597 11.1121 12.082 11.2363C12.2045 11.3604 12.3715 11.4307 12.5459 11.4307C12.7203 11.4305 12.8874 11.3606 13.0098 11.2363Z"
    fill="currentColor" />
  <path
    d="M8.46387 12.1592C8.58626 12.0349 8.65428 11.8668 8.6543 11.6924V4.30762C8.65428 4.13317 8.58626 3.96509 8.46387 3.84082C8.34137 3.7165 8.17454 3.64648 8 3.64648C7.82546 3.64648 7.65863 3.7165 7.53613 3.84082C7.41374 3.96509 7.34572 4.13317 7.3457 4.30762V11.6924C7.34572 11.8668 7.41374 12.0349 7.53613 12.1592C7.65863 12.2835 7.82546 12.3535 8 12.3535C8.17454 12.3535 8.34137 12.2835 8.46387 12.1592Z"
    fill="currentColor" />
  <path
    d="M6.19141 14.0049C6.31366 13.8806 6.38184 13.7124 6.38184 13.5381V2.46191C6.38184 2.28756 6.31366 2.11938 6.19141 1.99512C6.06896 1.87079 5.90203 1.79988 5.72754 1.7998C5.55296 1.7998 5.38618 1.87073 5.26367 1.99512C5.14127 2.11941 5.07227 2.28744 5.07227 2.46191V13.5381C5.07227 13.7126 5.14127 13.8806 5.26367 14.0049C5.38618 14.1293 5.55296 14.2002 5.72754 14.2002C5.90203 14.2001 6.06896 14.1292 6.19141 14.0049Z"
    fill="currentColor" />
</svg>